<svg width="12" height="15" viewBox="0 0 12 15" fill="none" xmlns="http://www.w3.org/2000/svg">
<path d="M0.0238409 13.5178C0.97351 14.2242 2.07688 14.6958 3.24373 14.894C4.41058 15.0923 5.60779 15.0116 6.73746 14.6585C7.86714 14.3054 8.89721 13.6899 9.74346 12.8625C10.5897 12.035 11.2281 11.019 11.6065 9.89753C11.9848 8.77606 12.0924 7.58096 11.9204 6.40996C11.7483 5.23895 11.3016 4.12528 10.6167 3.16C9.93184 2.19472 9.02821 1.40524 7.97974 0.8561C6.93127 0.306963 5.76772 0.0137631 4.58422 0.00047285L4.57297 1.00231C5.59837 1.01382 6.60648 1.26786 7.51489 1.74364C8.4233 2.21942 9.20622 2.90343 9.79962 3.73977C10.393 4.5761 10.7801 5.541 10.9291 6.55557C11.0781 7.57015 10.9849 8.60559 10.6571 9.57725C10.3293 10.5489 9.77621 11.4292 9.04301 12.1461C8.3098 12.863 7.41734 13.3963 6.43857 13.7022C5.4598 14.0081 4.42252 14.0781 3.41155 13.9063C2.40057 13.7345 1.4446 13.3259 0.621797 12.7139L0.0238409 13.5178Z" fill="#C4C4C4"/>
</svg>
